<?xml version="1.0" encoding="UTF-8" standalone="no"?>
<svg width="155px" height="124px" viewBox="0 0 155 124" version="1.1" xmlns="http://www.w3.org/2000/svg" xmlns:xlink="http://www.w3.org/1999/xlink">
    <!-- Generator: Sketch 3.6.1 (26313) - http://www.bohemiancoding.com/sketch -->
    <title>noun_78729_cc</title>
    <desc>Created with Sketch.</desc>
    <defs></defs>
    <g id="Page-1" stroke="none" stroke-width="1" fill="none" fill-rule="evenodd">
        <g id="Abouts-Us-Screen" transform="translate(-83.000000, -123.000000)">
            <g id="Card-Item" transform="translate(20.000000, 89.000000)">
                <rect id="Background-Card-Item" stroke="#2F83B6" fill="#FFFFFF" x="0" y="0" width="280" height="419"></rect>
                <g id="Center-Cell" transform="translate(0.000000, 34.000000)">
                    <rect id="Background-Header" x="0" y="0" width="280" height="325"></rect>
                    <g id="noun_78729_cc" transform="translate(63.000000, 0.000000)" fill="#2F83B6">
                        <path d="M83.9357292,80.8335065 C76.9268229,76.689974 67.4120833,72.568987 60.4483854,64.9518442 L60.4483854,61.4009351 C63.6823958,57.6406753 66.1204167,53.3006753 67.7802083,48.2456623 C68.0159375,47.5225974 68.23875,46.7866494 68.4421875,46.0362078 C70.1358854,45.1682078 71.5163542,42.8589091 71.8263542,40.0262338 C71.9313021,39.0841558 71.9086979,38.1726753 71.7779167,37.3304416 C71.5567188,35.9277922 71.0368229,34.7216104 70.3086458,33.889039 C70.4539583,31.2061299 70.4588021,28.3718442 70.3344792,25.3845714 C70.2376042,23.0607792 70.06,20.6451948 69.7935937,18.1233247 C69.7273958,17.5001039 69.6450521,16.901039 69.5433333,16.3196883 C67.0213542,1.81812987 53.7914583,0.386493506 48.7652604,0.37361039 C48.5634375,0.372 45.085625,0.372 44.8854167,0.37361039 C39.8592187,0.384883117 26.6293229,1.81812987 24.1073437,16.3196883 C24.0072396,16.8994286 23.9232812,17.5001039 23.8570833,18.1233247 C23.5922917,20.6451948 23.4163021,23.0591688 23.3161979,25.3845714 C23.1886458,28.3718442 23.1951042,31.2077403 23.3420312,33.889039 C22.6122396,34.7216104 22.0907292,35.9277922 21.874375,37.3304416 C21.7419792,38.1726753 21.719375,39.0825455 21.8227083,40.0262338 C22.1359375,42.8589091 23.5115625,45.1698182 25.206875,46.0362078 C25.6169792,47.5403117 26.0900521,48.9816104 26.6293229,50.3681558 C28.2406771,54.5294026 30.4300521,58.1769351 33.2022917,61.4009351 L33.2022917,64.9502338 L33.2022917,64.9518442 C20.7958333,78.520987 0.290625,80.9945455 0.290625,92.2672727 L0.290625,104.557766 C0.290625,106.066701 1.51609375,107.292208 3.03057292,107.292208 L50.5041667,107.292208 C52.4448958,96.3947013 69.7839063,92.0498701 83.9357292,80.8335065 L83.9357292,80.8335065 Z" id="Shape"></path>
                        <path d="M119.343542,78.0700779 L119.322552,72.7686753 C126.838437,73.7477922 142.157604,68.2901818 142.157604,68.2901818 C136.965104,62.9936104 135.789687,56.8113247 132.379687,32.5508052 C128.971302,8.28867532 107.833177,8.51574026 106.241198,8.51574026 C104.650833,8.51574026 83.5110938,8.28867532 80.1027083,32.5508052 C76.6927083,56.8097143 75.5189062,62.9936104 70.3247917,68.2901818 C70.3247917,68.2901818 85.6455729,73.7477922 93.1598438,72.7686753 L93.1388542,78.0700779 C79.7684896,92.694026 57.5986458,95.3608312 57.6002604,107.512831 L57.6002604,120.763117 C57.6002604,122.38961 58.9226042,123.71013 60.5533333,123.71013 L106.171771,123.71013 L106.30901,123.71013 L151.927448,123.71013 C153.558177,123.71013 154.880521,122.38961 154.880521,120.763117 L154.880521,107.512831 C154.88375,95.3608312 132.713906,92.694026 119.343542,78.0700779 L119.343542,78.0700779 Z" id="Shape"></path>
                    </g>
                </g>
            </g>
        </g>
    </g>
</svg>