<?xml version="1.0" encoding="UTF-8" standalone="no"?>
<svg width="146px" height="132px" viewBox="0 0 146 132" version="1.1" xmlns="http://www.w3.org/2000/svg" xmlns:xlink="http://www.w3.org/1999/xlink">
    <!-- Generator: Sketch 3.6.1 (26313) - http://www.bohemiancoding.com/sketch -->
    <title>Shape</title>
    <desc>Created with Sketch.</desc>
    <defs>
        <filter x="-50%" y="-50%" width="200%" height="200%" filterUnits="objectBoundingBox" id="filter-1">
            <feOffset dx="0" dy="2" in="SourceAlpha" result="shadowOffsetOuter1"></feOffset>
            <feGaussianBlur stdDeviation="2" in="shadowOffsetOuter1" result="shadowBlurOuter1"></feGaussianBlur>
            <feColorMatrix values="0 0 0 0 0.815686275   0 0 0 0 0.823529412   0 0 0 0 0.82745098  0 0 0 0.7 0" in="shadowBlurOuter1" type="matrix" result="shadowMatrixOuter1"></feColorMatrix>
            <feMerge>
                <feMergeNode in="shadowMatrixOuter1"></feMergeNode>
                <feMergeNode in="SourceGraphic"></feMergeNode>
            </feMerge>
        </filter>
    </defs>
    <g id="Page-1" stroke="none" stroke-width="1" fill="none" fill-rule="evenodd">
        <g id="NC---Screen-1-Card-2" transform="translate(-90.000000, -144.000000)">
            <g id="Card-Item" transform="translate(3.000000, 59.000000)">
                <rect id="Background-Card-Item" stroke="#9B9B9B" stroke-width="0.5" fill="#FFFFFF" filter="url(#filter-1)" x="17" y="0" width="280" height="419"></rect>
                <g id="Center-Cell" transform="translate(0.000000, 17.000000)" fill="#2F83B6">
                    <path d="M232.95182,107.402086 C233.04526,106.701293 232.9635,105.99466 232.743043,105.334747 C231.529795,97.9778802 225.168638,92.3291967 217.467215,92.3291967 L194.253447,92.3291967 C192.905881,75.3393466 182.448006,68 159.99927,68 C137.550534,68 127.092659,75.3393466 125.742173,92.3291967 L102.528405,92.3291967 C94.8313617,92.3291967 88.4687453,97.9778802 87.2554974,105.334747 C87.0364996,105.99466 86.9532805,106.701293 87.0467195,107.402086 C87.0408796,107.555384 87,107.698463 87,107.856141 L87,183.696543 C87,192.254977 93.9685103,199.220568 102.528405,199.220568 L217.468675,199.220568 C226.03003,199.220568 233,192.254977 233,183.696543 L233,107.856141 C232.99854,107.698463 232.95766,107.555384 232.95182,107.402086 L232.95182,107.402086 Z M159.99927,80.1748183 C178.850601,80.1748183 181.710713,85.2920671 182.150168,92.3277367 L137.848372,92.3277367 C138.284907,85.2920671 141.147939,80.1748183 159.99927,80.1748183 L159.99927,80.1748183 Z M102.528405,101.461405 L217.468675,101.461405 C220.369666,101.461405 222.796162,103.413406 223.578714,106.061819 L211.189278,127.622884 C208.97886,131.464105 203.156438,134.833752 198.729763,134.833752 L175.711633,134.833752 L175.711633,132.443756 C175.711633,126.907491 171.204658,122.400516 165.668393,122.400516 L154.330147,122.400516 C148.793882,122.400516 144.286907,126.907491 144.286907,132.443756 L144.286907,134.833752 L121.274617,134.833752 C116.842102,134.833752 111.0226,131.462645 108.812182,127.622884 L96.4212858,106.063279 C97.202378,103.413406 99.6288737,101.461405 102.528405,101.461405 L102.528405,101.461405 Z M166.577964,132.445216 L166.577964,149.354766 C166.577964,149.848242 166.161868,150.264337 165.668393,150.264337 L154.330147,150.264337 C153.836672,150.264337 153.420576,149.848242 153.420576,149.354766 L153.420576,132.445216 C153.420576,131.95174 153.836672,131.535645 154.330147,131.535645 L165.668393,131.535645 C166.161868,131.535645 166.577964,131.95174 166.577964,132.445216 L166.577964,132.445216 Z M217.467215,190.089819 L102.528405,190.089819 C99.00254,190.089819 96.1322087,187.223868 96.1322087,183.698003 L96.1322087,123.892621 L100.896141,132.175118 C104.696483,138.785932 113.649114,143.96888 121.274617,143.96888 L144.288367,143.96888 L144.288367,149.354766 C144.288367,154.889571 148.795342,159.396546 154.331607,159.396546 L165.669853,159.396546 C171.206118,159.396546 175.713093,154.889571 175.713093,149.354766 L175.713093,143.96888 L198.729763,143.96888 C206.352346,143.96888 215.303517,138.788852 219.105319,132.175118 L223.869251,123.892621 L223.869251,183.698003 C223.866331,187.223868 220.99308,190.089819 217.467215,190.089819 L217.467215,190.089819 Z" id="Shape"></path>
                </g>
            </g>
        </g>
    </g>
</svg>