<?xml version="1.0" encoding="UTF-8" standalone="no"?>
<svg width="162px" height="149px" viewBox="0 0 162 149" version="1.1" xmlns="http://www.w3.org/2000/svg" xmlns:xlink="http://www.w3.org/1999/xlink">
    <!-- Generator: Sketch 3.6.1 (26313) - http://www.bohemiancoding.com/sketch -->
    <title>Group</title>
    <desc>Created with Sketch.</desc>
    <defs>
        <filter x="-50%" y="-50%" width="200%" height="200%" filterUnits="objectBoundingBox" id="filter-1">
            <feOffset dx="0" dy="2" in="SourceAlpha" result="shadowOffsetOuter1"></feOffset>
            <feGaussianBlur stdDeviation="2" in="shadowOffsetOuter1" result="shadowBlurOuter1"></feGaussianBlur>
            <feColorMatrix values="0 0 0 0 0.815686275   0 0 0 0 0.823529412   0 0 0 0 0.82745098  0 0 0 0.7 0" in="shadowBlurOuter1" type="matrix" result="shadowMatrixOuter1"></feColorMatrix>
            <feMerge>
                <feMergeNode in="shadowMatrixOuter1"></feMergeNode>
                <feMergeNode in="SourceGraphic"></feMergeNode>
            </feMerge>
        </filter>
    </defs>
    <g id="Page-1" stroke="none" stroke-width="1" fill="none" fill-rule="evenodd">
        <g id="NC---Screen-1-Card-4" transform="translate(-79.000000, -135.000000)">
            <g id="Card-Item" transform="translate(3.000000, 59.000000)">
                <rect id="Background-Card-Item" stroke="#9B9B9B" stroke-width="0.5" fill="#FFFFFF" filter="url(#filter-1)" x="17" y="0" width="280" height="419"></rect>
                <g id="Center-Cell" transform="translate(0.000000, 17.000000)">
                    <rect id="Background-Header" x="0" y="0" width="280" height="325"></rect>
                    <g id="Calendar" transform="translate(76.000000, 59.000000)" fill="#2F83B6">
                        <g id="Group">
                            <path d="M161.91576,13.1362935 C161.91252,13.1314348 161.91252,13.1281957 161.91252,13.123337 C161.90442,13.0909457 161.88336,13.0698913 161.87526,13.0391196 C161.81694,12.862587 161.73756,12.6925326 161.63712,12.5354348 C161.595,12.467413 161.54154,12.4091087 161.4897,12.3475652 C161.40222,12.2390543 161.30988,12.1386413 161.20296,12.0463261 C161.13492,11.9896413 161.0685,11.9394348 160.99398,11.8908478 C160.94538,11.856837 160.90488,11.8147283 160.85304,11.7871957 C160.78176,11.745087 160.704,11.7305109 160.62948,11.6965 C160.55658,11.6657283 160.48692,11.633337 160.40916,11.6090435 C160.2342,11.5572174 160.05762,11.5313043 159.8778,11.521587 C159.84378,11.5199674 159.813,11.5053913 159.77898,11.5053913 L159.7239,11.5053913 L159.70932,11.5053913 L133.91892,11.5053913 C133.78446,7.35606522 132.21468,4.82954348 130.8555,3.43347826 C129.20472,1.74265217 127.03878,0.809782609 124.75782,0.809782609 C120.40164,0.809782609 115.93692,4.41493478 115.8462,11.1215543 C115.84458,11.1393696 115.83162,11.2737935 115.81218,11.5086304 L102.21552,11.5086304 C102.08268,7.35930435 100.5129,4.83278261 99.1521,3.43671739 C97.50294,1.74265217 95.33862,0.809782609 93.05604,0.809782609 C88.69986,0.809782609 84.23514,4.41493478 84.1428,11.1215543 C84.1428,11.1393696 84.12984,11.2737935 84.1104,11.5086304 L70.51374,11.5086304 C70.3809,7.35930435 68.81112,4.83278261 67.45032,3.43671739 C65.80116,1.74265217 63.63684,0.809782609 61.35426,0.809782609 C56.9997,0.809782609 52.53498,4.41493478 52.44264,11.1215543 C52.44102,11.1393696 52.42968,11.2737935 52.41024,11.5086304 L38.80872,11.5086304 C38.67426,7.35930435 37.10448,4.83278261 35.7453,3.43671739 C34.09614,1.74265217 31.9302,0.809782609 29.65248,0.809782609 C25.29306,0.809782609 20.83158,4.41655435 20.74248,11.1215543 C20.73924,11.1393696 20.7279,11.2737935 20.71008,11.5086304 L12.58254,11.5086304 C12.16458,11.5086304 11.75472,11.6284783 11.40156,11.8519783 L1.03842,18.4112174 C0.95094,18.464663 0.891,18.5472609 0.81486,18.6120435 C0.73548,18.6752065 0.65934,18.7335109 0.5913,18.8080109 C0.4617,18.9521522 0.36126,19.1124891 0.27378,19.284163 C0.23976,19.3489457 0.1944,19.4007717 0.16686,19.4687935 C0.06804,19.7182065 0.01458,19.9821957 0.0081,20.2559022 C0.0081,20.2720978 0,20.2834348 0,20.30125 L0,51.7159565 L0,145.955217 C0,147.190946 0.99144,148.190217 2.2194,148.190217 L128.68146,148.190217 C128.97144,148.190217 129.25818,148.130293 129.5271,148.020163 C129.79602,147.910033 130.04226,147.744837 130.25286,147.534293 L132.64398,145.119522 L154.53018,145.119522 C155.44872,145.119522 156.19554,144.369663 156.19554,143.446511 L156.19554,141.906304 L159.77898,141.906304 C161.00694,141.906304 161.99838,140.907033 161.99838,139.672924 L161.99838,45.433663 L161.99838,13.7420109 C162,13.533087 161.96922,13.3290217 161.91576,13.1362935 L161.91576,13.1362935 Z M151.63362,48.53675 L151.63362,21.5369783 L153.1224,20.5927717 L157.56282,17.7844457 L157.56282,44.2821522 L151.63362,48.53675 L151.63362,48.53675 Z M4.43718,22.5346304 L20.51406,22.5346304 L20.51406,22.6528587 C20.51406,22.8034783 20.54808,22.946 20.55456,23.095 C19.56312,24.5526087 18.95724,26.2968804 18.95724,28.1901522 C18.95724,33.2286196 23.06232,37.3309783 28.107,37.3309783 C33.15168,37.3309783 37.25676,33.2302391 37.25676,28.1901522 C37.25676,26.1640761 36.57636,24.3031957 35.4537,22.785663 C35.4537,22.7403152 35.46666,22.696587 35.46666,22.6512391 L35.46666,22.5330109 L52.21422,22.5330109 L52.21422,22.6512391 C52.21422,22.8034783 52.24824,22.9476196 52.25634,23.0966196 C51.2649,24.5558478 50.66388,26.2968804 50.66388,28.1901522 C50.66388,33.2286196 54.76734,37.3309783 59.81202,37.3309783 C64.8567,37.3309783 68.96178,33.2302391 68.96178,28.1901522 C68.96178,26.1640761 68.283,24.3031957 67.15872,22.785663 C67.16034,22.7403152 67.1733,22.696587 67.1733,22.6512391 L67.1733,22.5330109 L83.916,22.5330109 L83.916,22.6512391 C83.916,22.8034783 83.95002,22.9476196 83.95812,23.0966196 C82.96668,24.5558478 82.36404,26.2968804 82.36404,28.1901522 C82.36404,33.2286196 86.4675,37.3309783 91.5138,37.3309783 C96.55524,37.3309783 100.6587,33.2302391 100.6587,28.1901522 C100.6587,26.1640761 99.98154,24.3064348 98.86212,22.7889022 C98.86212,22.7435543 98.87508,22.6982065 98.87508,22.6512391 L98.87508,22.5330109 L115.62264,22.5330109 L115.62264,22.6512391 C115.62264,22.8018587 115.65666,22.9443804 115.66314,23.0933804 C114.67008,24.5509891 114.06582,26.2952609 114.06582,28.1885326 C114.06582,33.227 118.1709,37.3293587 123.21558,37.3293587 C128.26026,37.3293587 132.36534,33.2286196 132.36534,28.1885326 C132.36534,26.1624565 131.68494,24.3015761 130.56228,22.7840435 C130.56228,22.7386957 130.57524,22.6949674 130.57524,22.6496196 L130.57524,22.5313913 L147.19158,22.5313913 L147.1689,49.4809565 L4.43718,49.4809565 L4.43718,22.5346304 L4.43718,22.5346304 Z M32.7564,28.8039674 C32.45184,31.0891739 30.49488,32.8674565 28.10862,32.8674565 C25.7985,32.8674565 23.88366,31.2090217 23.48352,29.0307065 C24.74226,30.0656087 26.29422,30.7037174 27.99684,30.7037174 C29.81286,30.7037174 31.45878,29.9716739 32.7564,28.8039674 L32.7564,28.8039674 Z M64.46304,28.8023478 C64.15686,31.0891739 62.20152,32.8674565 59.81364,32.8674565 C57.50676,32.8674565 55.59192,31.2106413 55.18854,29.0339457 C56.44566,30.0688478 57.996,30.7037174 59.697,30.7037174 C61.51788,30.7037174 63.16542,29.9716739 64.46304,28.8023478 L64.46304,28.8023478 Z M96.15834,28.8072065 C95.85054,31.0907935 93.89682,32.8674565 91.51542,32.8674565 C89.20854,32.8674565 87.29208,31.2106413 86.89032,29.0339457 C88.14744,30.0688478 89.69778,30.7037174 91.39878,30.7037174 C93.21642,30.7037174 94.86396,29.9732935 96.15834,28.8072065 L96.15834,28.8072065 Z M152.08074,15.9753913 L148.7727,18.0694891 L130.57038,18.0694891 L130.56714,15.9753913 L152.08074,15.9753913 L152.08074,15.9753913 Z M127.86498,28.8023478 C127.56042,31.0891739 125.60346,32.8674565 123.2172,32.8674565 C120.9087,32.8674565 118.99386,31.2090217 118.5921,29.0323261 C119.84922,30.0656087 121.40118,30.7037174 123.10056,30.7037174 C124.9182,30.7037174 126.56736,29.9716739 127.86498,28.8023478 L127.86498,28.8023478 Z M120.06792,16.4029565 C120.08088,16.3155 120.08736,16.2280435 120.08736,16.1373478 C120.11652,13.1314348 120.26232,11.5717935 120.27366,11.372587 C120.33684,7.16171739 122.57082,5.27492391 124.75782,5.27492391 C125.83674,5.27492391 126.8784,5.73326087 127.6884,6.56733696 C128.2392,7.13256522 128.85318,8.03466304 129.20796,9.43396739 C128.50164,9.57972826 127.8585,9.93279348 127.35144,10.46725 C126.4491,11.4163152 126.036,12.8220978 126.1251,14.7688152 L126.13968,22.6544783 C126.13968,24.596337 124.74972,26.2401957 123.10218,26.2401957 C121.45464,26.2401957 120.06468,24.596337 120.06468,22.6544783 L120.06792,16.4029565 L120.06792,16.4029565 Z M115.64208,16.0272174 C115.62912,16.1243913 115.62264,16.2183261 115.62264,16.3155 L115.62264,18.0694891 L98.87508,18.0694891 L98.87508,15.9753913 L115.6437,15.9753913 C115.6437,15.9932065 115.64208,16.0094022 115.64208,16.0272174 L115.64208,16.0272174 Z M88.36128,16.4029565 C88.37424,16.3155 88.38072,16.229663 88.38234,16.1389674 C88.41636,13.1314348 88.56054,11.5717935 88.5735,11.372587 C88.63506,7.16171739 90.87066,5.27492391 93.05766,5.27492391 C94.13658,5.27492391 95.17824,5.73326087 95.98824,6.56733696 C96.53904,7.13256522 97.1514,8.03466304 97.5078,9.43396739 C96.80148,9.57972826 96.15672,9.92955435 95.65128,10.4656304 C94.74894,11.4130761 94.33422,12.8172391 94.42332,14.8060652 L94.43952,22.6560978 C94.43952,24.5979565 93.04956,26.2418152 91.40202,26.2418152 C89.75124,26.2418152 88.35804,24.5979565 88.35804,22.6560978 L88.36128,16.4029565 L88.36128,16.4029565 Z M83.93544,16.0272174 C83.92248,16.1211522 83.916,16.2183261 83.916,16.3155 L83.916,18.0694891 L67.1652,18.0694891 L67.16358,15.9753913 L83.93706,15.9753913 C83.93706,15.9932065 83.93544,16.0094022 83.93544,16.0272174 L83.93544,16.0272174 Z M56.6595,16.4515435 C56.67732,16.3462717 56.6838,16.241 56.68542,16.1373478 C56.71458,13.1314348 56.86038,11.5717935 56.87172,11.372587 C56.93328,7.16171739 59.16888,5.27492391 61.35588,5.27492391 C62.43642,5.27492391 63.47646,5.73326087 64.28646,6.56733696 C64.83726,7.13256522 65.45124,8.03466304 65.80602,9.43396739 C65.09808,9.57972826 64.45494,9.93279348 63.9495,10.46725 C63.04716,11.4163152 62.63082,12.8220978 62.72154,14.7688152 L62.73774,22.6544783 C62.73774,24.596337 61.34616,26.2401957 59.69862,26.2401957 C58.04946,26.2401957 56.65626,24.596337 56.65626,22.6544783 L56.6595,16.4515435 L56.6595,16.4515435 Z M52.24176,15.98025 C52.22394,16.0903804 52.21422,16.20375 52.21422,16.3155 L52.21422,18.0694891 L35.4618,18.0694891 L35.45856,15.9753913 L52.24176,15.9753913 C52.24176,15.9753913 52.24176,15.9770109 52.24176,15.98025 L52.24176,15.98025 Z M24.95934,16.4029565 C24.9723,16.3155 24.97554,16.229663 24.97878,16.1389674 C25.01118,13.1314348 25.1586,11.5717935 25.16832,11.372587 C25.22988,7.16171739 27.46548,5.27492391 29.65248,5.27492391 C30.72816,5.27492391 31.76982,5.73326087 32.57982,6.56409783 C33.13062,7.13256522 33.7446,8.03466304 34.09938,9.43234783 C33.39306,9.5781087 32.74992,9.93117391 32.24286,10.4656304 C31.34052,11.4146957 30.92742,12.8204783 31.01652,14.7671957 L31.0311,22.6528587 C31.0311,24.5947174 29.64276,26.2385761 27.99846,26.2385761 C26.34768,26.2385761 24.9561,24.5947174 24.9561,22.6528587 L24.95934,16.4029565 L24.95934,16.4029565 Z M13.22082,15.9753913 L20.53512,15.9753913 C20.53512,15.9932065 20.5335,16.0094022 20.5335,16.0272174 C20.52054,16.1243913 20.51406,16.2183261 20.51406,16.3155 L20.51406,18.0694891 L9.9144,18.0694891 L13.22082,15.9753913 L13.22082,15.9753913 Z M4.43718,53.949337 L147.1932,53.949337 L147.1932,122.780859 L128.68308,122.780859 C127.45674,122.780859 126.46368,123.78013 126.46368,125.014239 L126.46368,143.725076 L4.43718,143.725076 L4.43718,53.949337 L4.43718,53.949337 Z M136.9548,134.43687 L130.90248,140.550728 L130.90248,127.246 L144.07146,127.246 L136.9548,134.43687 L136.9548,134.43687 Z M135.96012,141.768641 L150.98562,126.590076 C151.17516,126.398967 151.31124,126.173848 151.41816,125.935772 C151.45218,125.86775 151.46838,125.796489 151.49268,125.725228 C151.55424,125.538978 151.59312,125.349489 151.60446,125.151902 C151.60932,125.104935 151.63362,125.059587 151.63362,125.01262 L151.63362,54.0205978 L152.86806,53.1346957 L152.86806,141.768641 L135.96012,141.768641 L135.96012,141.768641 Z M156.19716,137.437924 L156.19716,50.7474565 L157.56282,49.7676196 L157.56282,137.439543 L156.19716,137.439543 L156.19716,137.437924 Z" id="Shape"></path>
                            <path d="M61.75116,71.8422935 L53.94114,71.8422935 L42.15726,83.279663 L47.18736,88.6307065 L50.95872,85.0206957 C52.4799,83.4804891 53.01288,82.3467935 53.01288,82.3467935 L53.1441,82.3467935 C53.1441,82.3467935 53.0793,83.9517826 53.0793,85.5551522 L53.0793,111.907098 L42.94944,111.907098 L42.94944,119.329565 L71.8794,119.329565 L71.8794,111.907098 L61.75116,111.907098 L61.75116,71.8422935 L61.75116,71.8422935 Z" id="Shape"></path>
                            <path d="M92.13912,88.6307065 C89.35596,88.6307065 87.1722,89.5036522 87.1722,89.5036522 L87.03936,89.5036522 C87.03936,89.5036522 87.23862,88.5675435 87.37146,87.2978043 L87.966,80.7418043 C88.0308,79.8040761 88.49412,79.268 89.42076,79.268 L97.16598,79.268 C98.09262,79.268 98.62236,79.8040761 98.62236,80.7418043 L98.62236,83.614913 L106.50204,83.614913 L106.50204,76.3932717 C106.50204,73.2496957 105.11046,71.8422935 101.99844,71.8422935 L84.6531,71.8422935 C81.5427,71.8422935 80.48484,73.2480761 80.22078,76.3932717 L78.49872,96.5908696 L81.5427,98.1294565 C81.5427,98.1294565 85.25088,95.9900109 90.41544,95.9900109 C95.77764,95.9900109 100.54854,98.7967174 100.54854,104.079739 C100.54854,108.428272 97.1676,111.978359 91.93824,111.978359 C85.05324,111.978359 81.01458,106.957707 81.01458,106.957707 L76.64706,113.578489 C76.64706,113.578489 82.00764,120.202511 91.93824,120.202511 C102.92994,120.202511 109.35324,112.509576 109.35324,104.215783 C109.35162,95.5219565 102.92832,88.6307065 92.13912,88.6307065 L92.13912,88.6307065 Z" id="Shape"></path>
                        </g>
                    </g>
                </g>
            </g>
        </g>
    </g>
</svg>