<?xml version="1.0" encoding="UTF-8" standalone="no"?>
<svg width="104px" height="134px" viewBox="0 0 104 134" version="1.1" xmlns="http://www.w3.org/2000/svg" xmlns:xlink="http://www.w3.org/1999/xlink">
    <!-- Generator: Sketch 3.6.1 (26313) - http://www.bohemiancoding.com/sketch -->
    <title>Group</title>
    <desc>Created with Sketch.</desc>
    <defs>
        <filter x="-50%" y="-50%" width="200%" height="200%" filterUnits="objectBoundingBox" id="filter-1">
            <feOffset dx="0" dy="2" in="SourceAlpha" result="shadowOffsetOuter1"></feOffset>
            <feGaussianBlur stdDeviation="2" in="shadowOffsetOuter1" result="shadowBlurOuter1"></feGaussianBlur>
            <feColorMatrix values="0 0 0 0 0.815686275   0 0 0 0 0.823529412   0 0 0 0 0.82745098  0 0 0 0.7 0" in="shadowBlurOuter1" type="matrix" result="shadowMatrixOuter1"></feColorMatrix>
            <feMerge>
                <feMergeNode in="shadowMatrixOuter1"></feMergeNode>
                <feMergeNode in="SourceGraphic"></feMergeNode>
            </feMerge>
        </filter>
    </defs>
    <g id="Page-1" stroke="none" stroke-width="1" fill="none" fill-rule="evenodd">
        <g id="NC---Screen-1" transform="translate(-111.000000, -142.000000)">
            <g id="Card-Item" transform="translate(20.000000, 59.000000)">
                <rect id="Background-Card-Item" stroke="#9B9B9B" stroke-width="0.5" fill="#FFFFFF" filter="url(#filter-1)" x="0" y="0" width="280" height="419"></rect>
                <g id="Center-Cell" transform="translate(0.000000, 54.000000)">
                    <rect id="Background-Header" x="0" y="0" width="280" height="325"></rect>
                    <g id="Group" transform="translate(79.000000, 29.000000)" fill="#2F83B6">
                        <path d="M100.9535,46.658 L25.8905,46.658 L25.8905,42.158 L100.9535,42.158 L100.9535,46.658 L100.9535,46.658 Z M87.7655,22.658 L39.0785,22.658 L39.0785,27.158 L87.7655,27.158 L87.7655,22.658 L87.7655,22.658 Z M100.9535,54.158 L25.8905,54.158 L25.8905,58.658 L100.9535,58.658 L100.9535,54.158 L100.9535,54.158 Z M100.9535,66.158 L25.8905,66.158 L25.8905,70.658 L100.9535,70.658 L100.9535,66.158 L100.9535,66.158 Z M100.9535,78.158 L25.8905,78.158 L25.8905,82.658 L100.9535,82.658 L100.9535,78.158 L100.9535,78.158 Z M100.9535,90.158 L25.8905,90.158 L25.8905,94.658 L100.9535,94.658 L100.9535,90.158 L100.9535,90.158 Z M107.7455,0.638 L19.7855,0.638 C15.6425,0.638 12.2855,3.995 12.2855,8.138 L12.2855,126.263 C12.2855,130.406 15.6425,133.763 19.7855,133.763 L87.2,133.763 C84.0995,133.04 81.3275,131.456 79.163,129.263 L19.7855,129.263 C18.131,129.263 16.7855,127.919 16.7855,126.263 L16.7855,8.138 C16.7855,6.482 18.131,5.138 19.7855,5.138 L107.7455,5.138 C109.4,5.138 110.7455,6.482 110.7455,8.138 L110.7455,126.263 C110.7455,127.919 109.4,129.263 107.7455,129.263 L102.7775,129.263 C100.613,131.456 97.841,133.04 94.7405,133.763 L107.7455,133.763 C111.8885,133.763 115.2455,130.406 115.2455,126.263 L115.2455,8.138 C115.2455,3.9965 111.8885,0.638 107.7455,0.638 L107.7455,0.638 Z M84.917,102.158 L25.8905,102.158 L25.8905,106.658 L78.5165,106.658 C80.249,104.6885 82.436,103.133 84.917,102.158 L84.917,102.158 Z M100.9535,102.158 L97.0235,102.158 C98.4395,102.7145 99.7565,103.4615 100.9535,104.3675 L100.9535,102.158 L100.9535,102.158 Z M103.076,117.6065 C103.076,123.173 99.314,127.85 94.196,129.263 C93.167,129.5465 92.09,129.7115 90.971,129.7115 C89.852,129.7115 88.7735,129.548 87.746,129.263 C82.628,127.85 78.866,123.1715 78.866,117.6065 C78.866,112.7615 81.7175,108.593 85.829,106.658 C87.3905,105.923 89.129,105.5 90.9695,105.5 C92.81,105.5 94.55,105.923 96.113,106.658 C100.223,108.593 103.076,112.76 103.076,117.6065 L103.076,117.6065 Z M98.2265,112.8515 C97.7225,112.349 97.064,112.097 96.4055,112.097 C95.747,112.097 95.087,112.349 94.5845,112.8515 L89.396,118.043 L87.3545,116 C86.8505,115.496 86.1935,115.2455 85.5335,115.2455 C84.8735,115.2455 84.218,115.4975 83.714,116 C82.7075,117.005 82.7075,118.637 83.714,119.642 L87.5765,123.503 C88.058,123.986 88.715,124.259 89.3975,124.259 C90.08,124.259 90.737,123.986 91.2185,123.503 L98.228,116.492 C99.233,115.4885 99.233,113.8565 98.2265,112.8515 L98.2265,112.8515 Z" id="Shape"></path>
                    </g>
                </g>
            </g>
        </g>
    </g>
</svg>