<?xml version="1.0" encoding="UTF-8" standalone="no"?>
<svg width="150px" height="150px" viewBox="0 0 150 150" version="1.1" xmlns="http://www.w3.org/2000/svg" xmlns:xlink="http://www.w3.org/1999/xlink">
    <!-- Generator: Sketch 3.6.1 (26313) - http://www.bohemiancoding.com/sketch -->
    <title>Shape</title>
    <desc>Created with Sketch.</desc>
    <defs></defs>
    <g id="Page-1" stroke="none" stroke-width="1" fill="none" fill-rule="evenodd">
        <g id="Guarantee" transform="translate(-85.000000, -79.000000)">
            <g id="Center-Cell" transform="translate(20.000000, 91.000000)">
                <rect id="Background-Header" x="0" y="0" width="280" height="325"></rect>
            </g>
            <g id="Card-Item" transform="translate(20.000000, 65.000000)"></g>
            <path d="M224.258333,171.221667 C225.82,165.38 235,160.335 235,154 C235,147.665 225.82,142.62 224.26,136.778333 C222.645,130.733333 228.023333,121.785 224.961667,116.491667 C221.855,111.123333 211.386667,111.328333 207.03,106.97 C202.673333,102.613333 202.878333,92.145 197.508333,89.0383333 C192.215,85.9766667 183.266667,91.355 177.221667,89.74 C171.38,88.18 166.335,79 160,79 C153.665,79 148.62,88.18 142.778333,89.74 C136.733333,91.355 127.785,85.9766667 122.491667,89.0383333 C117.123333,92.145 117.328333,102.613333 112.97,106.97 C108.613333,111.326667 98.145,111.121667 95.0383333,116.491667 C91.9766667,121.785 97.355,130.733333 95.74,136.778333 C94.18,142.62 85,147.665 85,154 C85,160.335 94.18,165.38 95.74,171.221667 C97.355,177.266667 91.9766667,186.215 95.0383333,191.508333 C98.145,196.876667 108.613333,196.671667 112.97,201.03 C117.326667,205.386667 117.121667,215.855 122.491667,218.961667 C127.785,222.023333 136.733333,216.645 142.778333,218.26 C148.62,219.82 153.665,229 160,229 C166.335,229 171.38,219.82 177.221667,218.26 C183.266667,216.645 192.215,222.023333 197.508333,218.961667 C202.876667,215.855 202.671667,205.386667 207.03,201.03 C211.386667,196.673333 221.855,196.878333 224.961667,191.508333 C228.023333,186.215 222.643333,177.266667 224.258333,171.221667 L224.258333,171.221667 Z M150.306667,179.518333 L129.013333,158.091667 L139.355,147.685 L150.608333,159.003333 L180.946667,128.481667 L190.986667,138.583333 L150.306667,179.518333 L150.306667,179.518333 Z" id="Shape" fill="#2F83B6"></path>
        </g>
    </g>
</svg>