<?xml version="1.0" encoding="UTF-8" standalone="no"?>
<svg width="128px" height="154px" viewBox="0 0 128 154" version="1.1" xmlns="http://www.w3.org/2000/svg" xmlns:xlink="http://www.w3.org/1999/xlink">
    <!-- Generator: Sketch 3.6.1 (26313) - http://www.bohemiancoding.com/sketch -->
    <title>Medal</title>
    <desc>Created with Sketch.</desc>
    <defs>
        <filter x="-50%" y="-50%" width="200%" height="200%" filterUnits="objectBoundingBox" id="filter-1">
            <feOffset dx="0" dy="2" in="SourceAlpha" result="shadowOffsetOuter1"></feOffset>
            <feGaussianBlur stdDeviation="2" in="shadowOffsetOuter1" result="shadowBlurOuter1"></feGaussianBlur>
            <feColorMatrix values="0 0 0 0 0.815686275   0 0 0 0 0.823529412   0 0 0 0 0.82745098  0 0 0 0.7 0" in="shadowBlurOuter1" type="matrix" result="shadowMatrixOuter1"></feColorMatrix>
            <feMerge>
                <feMergeNode in="shadowMatrixOuter1"></feMergeNode>
                <feMergeNode in="SourceGraphic"></feMergeNode>
            </feMerge>
        </filter>
    </defs>
    <g id="Page-1" stroke="none" stroke-width="1" fill="none" fill-rule="evenodd">
        <g id="NC---Screen-1-Card-5" transform="translate(-99.000000, -133.000000)">
            <g id="Card-Item" transform="translate(3.000000, 59.000000)">
                <rect id="Background-Card-Item" stroke="#9B9B9B" stroke-width="0.5" fill="#FFFFFF" filter="url(#filter-1)" x="17" y="0" width="280" height="419"></rect>
                <g id="Center-Cell" transform="translate(0.000000, 17.000000)">
                    <rect id="Background-Header" x="0" y="0" width="280" height="325"></rect>
                    <g id="Medal" transform="translate(96.000000, 57.000000)" fill="#2F83B6">
                        <path d="M64,65.8491379 C40.7334765,65.8491379 20.0000006,86.5174931 20,109.711207 C20.0000005,132.904921 40.7334765,153.573276 64,153.573276 C87.266529,153.573276 108,132.904921 108,109.711207 C108,86.5174931 87.266529,65.8491379 64,65.8491379 L64,65.8491379 Z M64,71.3318966 C83.9303775,71.3318966 102.5,89.8433345 102.5,109.711207 C102.5,129.579079 83.9303775,148.090517 64,148.090517 C44.069628,148.090517 25.5,129.579079 25.5,109.711207 C25.5,89.8433345 44.069628,71.3318966 64,71.3318966 L64,71.3318966 Z" id="Shape"></path>
                        <path d="M64,79.5560345 C47.933169,79.5560345 33.750319,93.6949724 33.75,109.711207 C33.75,125.72799 47.93296,139.866379 64,139.866379 C80.06704,139.866379 94.25,125.72799 94.25,109.711207 C94.249681,93.6949724 80.066831,79.5560345 64,79.5560345 L64,79.5560345 Z M64,85.0387931 C76.7307345,85.0387931 88.749747,97.0202655 88.75,109.711207 C88.75,122.402148 76.7308885,134.383621 64,134.383621 C51.2691115,134.383621 39.25,122.402148 39.25,109.711207 C39.250253,97.0202655 51.2692655,85.0387931 64,85.0387931 L64,85.0387931 Z" id="Shape"></path>
                        <path d="M63.484375,93.091869 C62.5450693,93.2668594 61.7642019,93.9153348 61.421875,94.8046828 L57.984375,102.857759 L48.703125,103.714166 C47.6081935,103.817364 46.6802135,104.560903 46.3436601,105.604676 C46.0071068,106.648449 46.3266993,107.791737 47.15625,108.511579 L54.03125,113.994338 L52.140625,122.732759 C51.8143258,123.831558 52.2079811,125.016748 53.1276108,125.704308 C54.0472405,126.391868 55.2988247,126.436739 56.265625,125.81681 L63.828125,121.191007 L72.078125,125.6452 C73.0366574,126.149346 74.2028229,126.045334 75.0563516,125.379567 C75.9098802,124.7138 76.2916151,123.610425 76.03125,122.561697 L73.796875,114.337559 L80.84375,108.340517 C81.6733007,107.620675 81.9928932,106.477386 81.6563399,105.433614 C81.3197865,104.389841 80.3918065,103.646302 79.296875,103.543103 L70.1875,103.027724 L66.40625,94.8035862 C65.9429196,93.6310914 64.7374679,92.9244512 63.484375,93.0907724 L63.484375,93.091869 Z M64,102.686697 L65.890625,106.798766 C66.340438,107.72076 67.268706,108.315527 68.296875,108.340517 L72.078125,108.510483 L68.984375,111.251862 C68.1354529,111.961649 67.7966908,113.109938 68.125,114.164852 L68.984375,117.591576 L65.203125,115.535541 C64.3220281,115.097382 63.2731801,115.162207 62.453125,115.705507 L58.84375,117.761541 L59.703125,113.649472 C59.9581411,112.647245 59.6258473,111.587238 58.84375,110.908093 L55.75,108.508838 L60.21875,107.993459 C61.184122,107.907732 62.0329672,107.321808 62.453125,106.451159 L64,102.686697 L64,102.686697 Z" id="Shape"></path>
                        <path d="M41.140625,54.8836207 C39.9627325,55.2683131 39.18852,56.3909101 39.25,57.625 L39.25,73.9022138 C39.2359785,74.8908509 39.7570373,75.8104297 40.6136538,76.3088272 C41.4702703,76.8072248 42.5297297,76.8072248 43.3863462,76.3088272 C44.2429627,75.8104297 44.7640215,74.8908509 44.75,73.9022138 L44.75,60.3663793 L83.25,60.3663793 L83.25,73.9022138 C83.2359785,74.8908509 83.7570373,75.8104297 84.6136538,76.3088272 C85.4702703,76.8072248 86.5297297,76.8072248 87.3863462,76.3088272 C88.2429627,75.8104297 88.7640215,74.8908509 88.75,73.9022138 L88.75,57.625 C88.7498482,56.1110407 87.5187202,54.883772 86,54.8836207 L42,54.8836207 C41.7153114,54.8387307 41.4253136,54.8387307 41.140625,54.8836207 L41.140625,54.8836207 Z" id="Shape"></path>
                        <path d="M2.640625,0.0560344828 C1.83808631,0.336726669 1.21096875,0.971762151 0.942016566,1.77608936 C0.673064386,2.58041657 0.792538968,3.46353596 1.265625,4.16810345 L39.59375,61.737069 C40.0745615,62.6496341 41.0282057,63.2162429 42.0621504,63.2036721 C43.0960951,63.1911013 44.035593,62.6014754 44.4939349,61.6774919 C44.9522768,60.7535085 44.8519982,59.6513301 44.234375,58.8246276 L8.65625,5.5387931 L35.125,5.5387931 L61.765625,42.7184759 C62.3488906,43.5143283 63.3137852,43.9395101 64.2968082,43.8338443 C65.2798311,43.7281786 66.1316211,43.1077202 66.531287,42.2062118 C66.930953,41.3047034 66.8177692,40.2591209 66.234375,39.4633621 L38.734375,1.08405172 C38.1934924,0.409799628 37.365617,0.0289010947 36.5,0.0560344828 L3.5,0.0560344828 C3.21531139,0.0111445134 2.92531361,0.0111445134 2.640625,0.0560344828 L2.640625,0.0560344828 Z" id="Shape"></path>
                        <path d="M90.640625,0.0560344828 C90.0838918,0.243475459 89.6020195,0.603746765 89.265625,1.08405172 L50.765625,55.9116379 C50.1822308,56.7073967 50.069047,57.7529792 50.468713,58.6544876 C50.8683789,59.555996 51.7201689,60.1764544 52.7031918,60.2821202 C53.6862148,60.387786 54.6511094,59.9626042 55.234375,59.1667517 L92.875,5.5387931 L119.34375,5.5387931 L83.765625,58.8246276 C82.9280117,59.6007001 82.6595258,60.8124788 83.0913152,61.868044 C83.5231045,62.9236092 84.5650659,63.6026921 85.7082307,63.5735798 C86.8513955,63.5444676 87.8572151,62.8132351 88.234375,61.737069 L126.734375,4.16810345 C127.21424,3.34231359 127.228813,2.32718815 126.772849,1.48804786 C126.316886,0.64890757 125.455998,0.106503446 124.5,0.0560344828 L91.5,0.0560344828 C91.2153114,0.011144508 90.9253136,0.011144508 90.640625,0.0560344828 L90.640625,0.0560344828 Z" id="Shape"></path>
                    </g>
                </g>
            </g>
        </g>
    </g>
</svg>