<?xml version="1.0" encoding="UTF-8" standalone="no"?>
<svg width="179px" height="146px" viewBox="0 0 179 146" version="1.1" xmlns="http://www.w3.org/2000/svg" xmlns:xlink="http://www.w3.org/1999/xlink">
    <!-- Generator: Sketch 3.6.1 (26313) - http://www.bohemiancoding.com/sketch -->
    <title>Shape</title>
    <desc>Created with Sketch.</desc>
    <defs>
        <filter x="-50%" y="-50%" width="200%" height="200%" filterUnits="objectBoundingBox" id="filter-1">
            <feOffset dx="0" dy="2" in="SourceAlpha" result="shadowOffsetOuter1"></feOffset>
            <feGaussianBlur stdDeviation="2" in="shadowOffsetOuter1" result="shadowBlurOuter1"></feGaussianBlur>
            <feColorMatrix values="0 0 0 0 0.815686275   0 0 0 0 0.823529412   0 0 0 0 0.82745098  0 0 0 0.7 0" in="shadowBlurOuter1" type="matrix" result="shadowMatrixOuter1"></feColorMatrix>
            <feMerge>
                <feMergeNode in="shadowMatrixOuter1"></feMergeNode>
                <feMergeNode in="SourceGraphic"></feMergeNode>
            </feMerge>
        </filter>
    </defs>
    <g id="Page-1" stroke="none" stroke-width="1" fill="none" fill-rule="evenodd">
        <g id="NC---Screen-1-Card-3" transform="translate(-74.000000, -142.000000)">
            <g id="Card-Item" transform="translate(3.000000, 59.000000)">
                <rect id="Background-Card-Item" stroke="#9B9B9B" stroke-width="0.5" fill="#FFFFFF" filter="url(#filter-1)" x="17" y="0" width="280" height="419"></rect>
                <g id="Center-Cell" transform="translate(0.000000, 17.000000)">
                    <rect id="Background-Header" x="0" y="0" width="280" height="325"></rect>
                    <path d="M215.428598,109.827447 C210.42735,84.4901626 188.312487,66 161.912934,66 C143.894192,66 127.4259,74.6280441 117.201312,89.2504628 C91.0259461,90.7925319 71,109.724782 71,133.614282 C71,158.352338 90.8855675,178.476759 115.328201,178.476759 C118.799951,178.476759 121.613808,175.662902 121.613808,172.191151 C121.613808,168.719401 118.799951,165.905544 115.328201,165.905544 C97.8185928,165.905544 83.5712154,151.419313 83.5712154,133.614282 C83.5712154,115.432114 99.517802,101.719013 120.662586,101.719013 C122.852073,101.719013 124.884419,100.579223 126.026305,98.7103024 C133.730365,86.097183 147.145947,78.5691202 161.910839,78.5691202 C183.656946,78.5691202 201.625404,94.8656057 203.708035,116.475525 C204.018125,119.700042 206.727222,122.157714 209.96431,122.157714 C226.971069,122.157714 237.124421,130.232625 237.124421,143.761348 C237.126516,155.764763 227.19316,165.905544 215.436979,165.905544 L196.800152,165.905544 C193.328401,165.905544 190.514544,168.719401 190.514544,172.191151 C190.514544,175.662902 193.328401,178.476759 196.800152,178.476759 L215.436979,178.476759 C234.32942,178.476759 249.699826,162.903118 249.699826,143.763443 C249.697731,124.613292 236.428813,111.715225 215.428598,109.827447 L215.428598,109.827447 Z M152.807184,126.400499 L130.652512,148.557266 C128.19903,151.012844 128.19903,154.991634 130.652512,157.445116 C133.105994,159.900693 137.086879,159.900693 139.542457,157.445116 L150.705696,146.281876 L150.705696,205.714392 C150.705696,209.186143 153.519553,212 156.991303,212 C160.463054,212 163.276911,209.186143 163.276911,205.714392 L163.276911,145.758076 L174.963951,157.445116 C176.19174,158.672904 177.800855,159.286799 179.407876,159.286799 C181.014896,159.286799 182.624012,158.672904 183.8518,157.445116 C186.307378,154.991634 186.307378,151.012844 183.8518,148.557266 L161.697128,126.400499 C159.340026,124.041301 155.166382,124.041301 152.807184,126.400499 Z" id="Shape" fill="#2F83B6"></path>
                </g>
            </g>
        </g>
    </g>
</svg>